<svg xmlns="http://www.w3.org/2000/svg" width="116.834" height="116.454" viewBox="0 0 116.834 116.454"><g transform="translate(-1755.468 -158.918)"><path d="M1871.852,222.913c0,30.9,6.036,52.459-26.1,52.459s-90.281-21.556-90.281-52.459,51.362-63.995,83.5-63.995S1871.852,192.01,1871.852,222.913Z" fill="#fbcd36"/><path d="M1839.845,269.133a6.582,6.582,0,0,1-3.091-.78l-21.425-11.45a3.064,3.064,0,0,0-2.886,0l-21.427,11.45a6.578,6.578,0,0,1-3.09.78,6.5,6.5,0,0,1-3.818-1.242,6.669,6.669,0,0,1-2.686-6.574l4.093-24.25a3.256,3.256,0,0,0-.908-2.851l-17.335-17.173a6.7,6.7,0,0,1-1.647-6.886,6.59,6.59,0,0,1,5.314-4.505l23.955-3.539a3.128,3.128,0,0,0,2.351-1.743l10.713-22.063a6.57,6.57,0,0,1,11.855,0l10.713,22.063a3.129,3.129,0,0,0,2.352,1.743l23.953,3.538a6.587,6.587,0,0,1,5.313,4.506,6.692,6.692,0,0,1-1.646,6.884l-17.334,17.174a3.254,3.254,0,0,0-.909,2.85l4.093,24.251a6.673,6.673,0,0,1-2.686,6.574A6.5,6.5,0,0,1,1839.845,269.133Zm-25.96-16.073a6.558,6.558,0,0,1,3.084.774l21.425,11.449a3.051,3.051,0,0,0,1.445.372,3.1,3.1,0,0,0,1.792-.59,3.194,3.194,0,0,0,1.286-3.169l-4.092-24.25a6.733,6.733,0,0,1,1.889-5.9l17.335-17.175a3.235,3.235,0,0,0,.791-3.326,3.1,3.1,0,0,0-2.516-2.149l-23.956-3.537a6.616,6.616,0,0,1-4.974-3.667l-10.713-22.064a3.09,3.09,0,0,0-5.592,0l-10.713,22.064a6.612,6.612,0,0,1-4.974,3.667l-23.955,3.537a3.091,3.091,0,0,0-2.514,2.147,3.23,3.23,0,0,0,.789,3.328l17.335,17.175a6.733,6.733,0,0,1,1.889,5.9l-4.091,24.249a3.2,3.2,0,0,0,1.282,3.169,3.133,3.133,0,0,0,1.8.591,3.028,3.028,0,0,0,1.443-.372l21.425-11.449A6.564,6.564,0,0,1,1813.885,253.06Z" fill="#282d33"/><path d="M1813.885,253.06a6.558,6.558,0,0,1,3.084.774l21.425,11.449a3.051,3.051,0,0,0,1.445.372,3.1,3.1,0,0,0,1.792-.59,3.194,3.194,0,0,0,1.286-3.169l-4.092-24.25a6.733,6.733,0,0,1,1.889-5.9l17.335-17.175a3.235,3.235,0,0,0,.791-3.326,3.1,3.1,0,0,0-2.516-2.149l-23.956-3.537a6.616,6.616,0,0,1-4.974-3.667l-10.713-22.064a3.09,3.09,0,0,0-5.592,0l-10.713,22.064a6.612,6.612,0,0,1-4.974,3.667l-23.955,3.537a3.091,3.091,0,0,0-2.514,2.147,3.23,3.23,0,0,0,.789,3.328l17.335,17.175a6.733,6.733,0,0,1,1.889,5.9l-4.091,24.249a3.2,3.2,0,0,0,1.282,3.169,3.133,3.133,0,0,0,1.8.591,3.028,3.028,0,0,0,1.443-.372l21.425-11.449A6.564,6.564,0,0,1,1813.885,253.06Z" fill="#fff" opacity="0.7"/></g></svg>