<svg xmlns="http://www.w3.org/2000/svg" width="107" height="90.556" viewBox="0 0 107 90.556"><g transform="translate(-1854.385 -625.238)"><path d="M1961.312,668.638c2.168,44.8-44.423,47.156-71.032,47.156s-50.291-44.929-25.327-47.156c20.844-1.859,36.669-1.405,49.2-24.876C1938.309,598.535,1960.3,647.735,1961.312,668.638Z" fill="#3bd4e1"/><g opacity="0.7"><path d="M1876.195,648.748a3.818,3.818,0,0,1,3.818-3.818h2.845l.355-.544a5.284,5.284,0,0,1,4.407-2.377h22.254v4.1a5.231,5.231,0,0,1-2.951,4.716,3.739,3.739,0,0,1-1.086.4,4.168,4.168,0,0,1-1.185.159h-22.594a4.4,4.4,0,0,0-1.645.309,4.147,4.147,0,0,0-1.419.853,4.513,4.513,0,0,0-1.486,2.422.5.5,0,0,0-.045.2,6.3,6.3,0,0,0-1.268.506Z" fill="#fff"/><path d="M1905.331,655.17a2.715,2.715,0,0,1,.015.355v11.131c0,.279-.015.558-.03.837a12.756,12.756,0,0,1-25.484-.837V655.389a2.287,2.287,0,0,1,2.226-1.66h22.549c.211,0,.415-.015.619-.03A11.9,11.9,0,0,1,1905.331,655.17Z" fill="#fff"/><path d="M1916.99,653.4l.015-.015a9.729,9.729,0,0,1,1.064-.77h.008c.377-.233.755-.452,1.155-.648a12.565,12.565,0,0,1,11.3-.016h.008a11.251,11.251,0,0,1,2.233,1.4c.008.008.008.008.015.008a12.6,12.6,0,0,1,4.86,9.659,2.569,2.569,0,0,1,.015.339v1.427h-3.033l-3.109-5.388-3.11,5.388h-16.247v-1.427A12.67,12.67,0,0,1,1916.99,653.4Z" fill="#fff"/><path d="M1924.891,646.447a5.635,5.635,0,0,1,4.747,2.595,14.685,14.685,0,0,0-4.732-.769,14.936,14.936,0,0,0-4.776.785h-.008A5.668,5.668,0,0,1,1924.891,646.447Z" fill="#fff"/><path d="M1924.906,687.257a12.741,12.741,0,0,1-12.738-12.738v-7.38h17.6l1.759-3.049,1.765,3.049h4.377v7.38c0,.272-.015.551-.03.83A12.759,12.759,0,0,1,1924.906,687.257Z" fill="#fff"/><path d="M1908.516,667.463v-.807c0-.31.588-.8,1.3-1.14v7.343c-.71-.355-1.3-.845-1.3-1.162Z" fill="#fff"/><path d="M1876.195,658.815c0-.287.528-.739,1.177-1.094.045-.015.075-.046.121-.06V665c-.046-.015-.076-.045-.121-.06-.649-.34-1.177-.793-1.177-1.079Z" fill="#fff"/><path d="M1940.9,666.656V671.7a1.566,1.566,0,0,1-.9,1.426v-7.886A1.58,1.58,0,0,1,1940.9,666.656Z" fill="#fff"/><path d="M1908.576,658.815V663.5a8.79,8.79,0,0,0-.9.559V657.4A1.563,1.563,0,0,1,1908.576,658.815Z" fill="#fff"/><path d="M1873.863,694.434v-4.566c0-2.392,2.256-4.339,5.056-4.339h27.355c2.785,0,5.057,1.947,5.057,4.339v1.162h-.091a7.523,7.523,0,0,0-6.437,3.4Z" fill="#fff"/><path d="M1906.184,702.29v-4.566a3.4,3.4,0,0,1,.136-.958,4.286,4.286,0,0,1,1.622-2.332,5.561,5.561,0,0,1,3.3-1.049h27.355c2.785,0,5.057,1.947,5.057,4.339v4.566Z" fill="#fff"/></g><path d="M1892.585,681.756a15.1,15.1,0,0,0,13.81-9.018,5.374,5.374,0,0,0,3.434,2.641,15.1,15.1,0,0,0,30.14.2v-.015a3.929,3.929,0,0,0,3.267-3.871v-5.041a3.922,3.922,0,0,0-3.252-3.849,15.092,15.092,0,0,0-7.267-12.361,8,8,0,0,0-15.659.023h-.007a15.156,15.156,0,0,0-6.234,7.5,3.918,3.918,0,0,0-3.154-3.019,13.828,13.828,0,0,0-.166-1.8,7.614,7.614,0,0,0,4.716-7.048V639.67H1887.62a7.626,7.626,0,0,0-5.984,2.913h-1.623a6.169,6.169,0,0,0-6.15,6.165v19.319h3.69A15.14,15.14,0,0,0,1892.585,681.756Zm-16.39-33.008a3.818,3.818,0,0,1,3.818-3.818h2.845l.355-.544a5.284,5.284,0,0,1,4.407-2.377h22.254v4.1a5.231,5.231,0,0,1-2.951,4.716,3.739,3.739,0,0,1-1.086.4,4.168,4.168,0,0,1-1.185.159h-22.594a4.4,4.4,0,0,0-1.645.309,4.147,4.147,0,0,0-1.419.853,4.513,4.513,0,0,0-1.486,2.422.5.5,0,0,0-.045.2,6.3,6.3,0,0,0-1.268.506Zm29.136,6.422a2.715,2.715,0,0,1,.015.355v11.131c0,.279-.015.558-.03.837a12.756,12.756,0,0,1-25.484-.837V655.389a2.287,2.287,0,0,1,2.226-1.66h22.549c.211,0,.415-.015.619-.03A11.9,11.9,0,0,1,1905.331,655.17Zm11.659-1.766.015-.015a9.729,9.729,0,0,1,1.064-.77h.008c.377-.233.755-.452,1.155-.648a12.565,12.565,0,0,1,11.3-.016h.008a11.251,11.251,0,0,1,2.233,1.4c.008.008.008.008.015.008a12.6,12.6,0,0,1,4.86,9.659,2.569,2.569,0,0,1,.015.339v1.427h-3.033l-3.109-5.388-3.11,5.388h-16.247v-1.427A12.67,12.67,0,0,1,1916.99,653.4Zm7.9-6.957a5.635,5.635,0,0,1,4.747,2.595,14.685,14.685,0,0,0-4.732-.769,14.936,14.936,0,0,0-4.776.785h-.008A5.668,5.668,0,0,1,1924.891,646.447Zm.015,40.81a12.741,12.741,0,0,1-12.738-12.738v-7.38h17.6l1.759-3.049,1.765,3.049h4.377v7.38c0,.272-.015.551-.03.83A12.759,12.759,0,0,1,1924.906,687.257Zm-16.39-19.794v-.807c0-.31.588-.8,1.3-1.14v7.343c-.71-.355-1.3-.845-1.3-1.162Zm-32.321-8.648c0-.287.528-.739,1.177-1.094.045-.015.075-.046.121-.06V665c-.046-.015-.076-.045-.121-.06-.649-.34-1.177-.793-1.177-1.079Zm64.7,7.841V671.7a1.566,1.566,0,0,1-.9,1.426v-7.886A1.58,1.58,0,0,1,1940.9,666.656Zm-32.321-7.841V663.5a8.79,8.79,0,0,0-.9.559V657.4A1.563,1.563,0,0,1,1908.576,658.815Z" fill="#282d33"/><path d="M1938.595,691.03h-24.933v-1.162c0-3.675-3.3-6.678-7.388-6.678h-27.355c-4.083,0-7.411,3-7.411,6.678v6.9h32.4a6.688,6.688,0,0,0-.076.958v6.9h42.154v-6.9C1945.983,694.034,1942.678,691.03,1938.595,691.03Zm-64.732,3.4v-4.566c0-2.392,2.256-4.339,5.056-4.339h27.355c2.785,0,5.057,1.947,5.057,4.339v1.162h-.091a7.523,7.523,0,0,0-6.437,3.4Zm32.321,7.856v-4.566a3.4,3.4,0,0,1,.136-.958,4.286,4.286,0,0,1,1.622-2.332,5.561,5.561,0,0,1,3.3-1.049h27.355c2.785,0,5.057,1.947,5.057,4.339v4.566Z" fill="#282d33"/></g></svg>