<svg xmlns="http://www.w3.org/2000/svg" width="100" height="95.839" viewBox="0 0 100 95.839"><g transform="translate(-1669.885 -625.853)"><path d="M1769.885,669.763a43.907,43.907,0,0,0-73.784-32.177,43.913,43.913,0,1,0,47.568,72.373A43.918,43.918,0,0,0,1769.885,669.763Z" fill="#6b86fb"/><g opacity="0.7"><path d="M1731.467,642.72a6.653,6.653,0,0,0-11.208.024,17.638,17.638,0,0,1,11.208-.024Z" fill="#fff"/><path d="M1693.131,703.36l-.309,1.994h6.681V693.872h-4.913Z" fill="#fff"/><path d="M1733.674,654.914l3.661,6.336h3.566v-1.673c0-.142,0-.285-.012-.427a14.97,14.97,0,0,0-5.72-11.363,13.777,13.777,0,0,0-1.287-.907,14.578,14.578,0,0,0-1.359-.766,14.99,14.99,0,0,0-13.309.03,13.48,13.48,0,0,0-1.358.771,12.929,12.929,0,0,0-1.282.914,14.984,14.984,0,0,0-5.684,11.748v1.673h19.129Z" fill="#fff"/><path d="M1714.931,682.006s.011.415.011.913a14.988,14.988,0,0,0,25.923-9.25c.024-.326.036-.653.036-.985V664h-5.156l-2.071-3.577L1731.609,664H1710.89v8.681a14.773,14.773,0,0,0,.8,4.824A4.739,4.739,0,0,1,1714.931,682.006Z" fill="#fff"/><path d="M1706.612,663.452v5.927c0,.368.682.95,1.525,1.359v-8.645C1707.294,662.5,1706.612,663.084,1706.612,663.452Z" fill="#fff"/><path d="M1744.7,669.379v-5.927a1.842,1.842,0,0,0-1.039-1.662v9.25A1.839,1.839,0,0,0,1744.7,669.379Z" fill="#fff"/><path d="M1741.987,694.881h-27.056v5.512a4.059,4.059,0,0,1-.345,1.276,4.953,4.953,0,0,1-4.4,2.877h-6.331v.807h44.091V700C1747.944,697.177,1745.274,694.881,1741.987,694.881Z" fill="#fff"/><path d="M1710.184,702.173a2.372,2.372,0,0,0,2.373-2.373V682.006a2.358,2.358,0,0,0-1.4-2.16,2.3,2.3,0,0,0-.973-.214h-26.1a2.373,2.373,0,0,0-2.374,2.374V699.8a2.373,2.373,0,0,0,2.374,2.373h6.829l1.489-9.671a1.186,1.186,0,0,1,1.169-1h7.12a1.183,1.183,0,0,1,1.187,1.187v9.487h8.307Zm-23.728-7.12h-2.373v-8.3h2.373Zm0-10.674h-2.373v-2.373h2.373Z" fill="#fff"/></g><rect width="2.373" height="2.373" transform="translate(1684.083 682.006)" fill="#282d33"/><rect width="2.373" height="8.301" transform="translate(1684.083 686.752)" fill="#282d33"/><path d="M1741.987,692.128h-27.056v-5.494a17.741,17.741,0,0,0,28.682-12.7,4.618,4.618,0,0,0,3.839-4.551v-5.927a4.621,4.621,0,0,0-3.81-4.545,17.764,17.764,0,0,0-8.562-14.531,9.416,9.416,0,0,0-18.435.047,17.748,17.748,0,0,0-8.5,14.709c-2.047.6-4.29,2.184-4.29,4.32v5.927c0,2.142,2.255,3.72,4.307,4.326a17.658,17.658,0,0,0,.57,3.554h-24.653a4.745,4.745,0,0,0-4.747,4.747V699.8a4.745,4.745,0,0,0,4.747,4.746h6.461l-.552,3.561H1750.7V700C1750.7,695.658,1746.793,692.128,1741.987,692.128Zm1.673-30.338a1.842,1.842,0,0,1,1.039,1.662v5.927a1.839,1.839,0,0,1-1.039,1.661Zm-35.523,8.948c-.843-.409-1.525-.991-1.525-1.359v-5.927c0-.368.682-.95,1.525-1.359Zm17.729-31.073a6.662,6.662,0,0,1,5.6,3.055,17.638,17.638,0,0,0-11.208.024A6.641,6.641,0,0,1,1725.866,639.665Zm-14.976,19.912a14.984,14.984,0,0,1,5.684-11.748,12.929,12.929,0,0,1,1.282-.914,13.48,13.48,0,0,1,1.358-.771,14.99,14.99,0,0,1,13.309-.03,14.578,14.578,0,0,1,1.359.766,13.777,13.777,0,0,1,1.287.907,14.97,14.97,0,0,1,5.72,11.363c.012.142.012.285.012.427v1.673h-3.566l-3.661-6.336-3.655,6.336H1710.89Zm0,4.426h20.719l2.065-3.577,2.071,3.577h5.156v8.681c0,.332-.012.659-.036.985a14.988,14.988,0,0,1-25.923,9.25c0-.5-.011-.913-.011-.913a4.739,4.739,0,0,0-3.24-4.5,14.773,14.773,0,0,1-.8-4.824Zm-11.386,41.35h-6.681l.308-1.993,1.46-9.488h4.913Zm2.373-3.18v-9.487a1.183,1.183,0,0,0-1.187-1.187h-7.12a1.186,1.186,0,0,0-1.169,1l-1.489,9.671h-6.829a2.373,2.373,0,0,1-2.374-2.373V682.006a2.373,2.373,0,0,1,2.374-2.374h26.1a2.3,2.3,0,0,1,.973.214,2.358,2.358,0,0,1,1.4,2.16V699.8a2.372,2.372,0,0,1-2.373,2.373h-8.307Zm46.067,3.18h-44.091v-.807h6.331a4.953,4.953,0,0,0,4.4-2.877,4.059,4.059,0,0,0,.345-1.276v-5.512h27.056c3.287,0,5.957,2.3,5.957,5.115Z" fill="#282d33"/></g></svg>