<svg xmlns="http://www.w3.org/2000/svg" width="108" height="97.481" viewBox="0 0 108 97.481"><g transform="translate(-40.001 -402.6)"><path d="M126.712,466.367c-20.364,11.038-14.136,40.31-42.5,32.366s-33.594-32.521-40.037-54.77c-19.551-67.5,34.3-33.945,62.662-26S172.011,441.812,126.712,466.367Z" fill="#fba5a6"/><path d="M124.2,429.845a1.714,1.714,0,0,1,1.729,1.712l.178,36.97a1.716,1.716,0,0,1-1.712,1.73l-66.637.331a1.723,1.723,0,0,1-1.726-1.724l-.042-8.869.1-.14a9.557,9.557,0,0,0-.106-17.956l-.084-.118-.047-9.876a1.707,1.707,0,0,1,1.712-1.73l50.779-.248Z" fill="#fff" opacity="0.7"/><path d="M123.929,430.012a1.7,1.7,0,0,1,1.715,1.7l.176,36.667a1.7,1.7,0,0,1-1.7,1.716l-66.091.328a1.708,1.708,0,0,1-1.712-1.709l-.041-8.8.1-.139a9.478,9.478,0,0,0-.1-17.808l-.084-.118-.047-9.8a1.693,1.693,0,0,1,1.7-1.715l50.362-.247Zm-15.744-3.08-50.364.247a4.861,4.861,0,0,0-4.839,4.882l.046,9.794a3.341,3.341,0,0,0,2.2,3.1,6.326,6.326,0,0,1,.057,11.874,3.306,3.306,0,0,0-2.164,3.108l.041,8.8a4.88,4.88,0,0,0,4.893,4.843l66.091-.328a4.867,4.867,0,0,0,4.839-4.882l-.176-36.668a4.88,4.88,0,0,0-4.893-4.843Z"/><path d="M69.987,448.065a1.073,1.073,0,0,0-1.053,1.091h0l.011,2.331a1.074,1.074,0,0,0,1.064,1.081h0a1.073,1.073,0,0,0,1.054-1.091h0l-.011-2.331a1.074,1.074,0,0,0-1.064-1.081Z"/><path d="M69.92,434.119a1.072,1.072,0,0,0-1.054,1.09h0l.011,2.331A1.059,1.059,0,1,0,71,437.53l-.011-2.331a1.072,1.072,0,0,0-1.064-1.08Z"/><path d="M69.954,441.092a1.072,1.072,0,0,0-1.054,1.09h0l.011,2.331a1.059,1.059,0,1,0,2.118-.011l-.011-2.331A1.076,1.076,0,0,0,69.954,441.092Z"/><path d="M70.021,455.035a1.072,1.072,0,0,0-1.053,1.091v0l.011,2.331a1.073,1.073,0,0,0,1.064,1.081h0A1.073,1.073,0,0,0,71.1,458.45h0l-.011-2.331a1.074,1.074,0,0,0-1.061-1.084Z"/><path d="M70.055,462.008A1.075,1.075,0,0,0,69,463.1l.011,2.332a1.072,1.072,0,0,0,1.064,1.08h0a1.072,1.072,0,0,0,1.054-1.091h0l-.011-2.331A1.077,1.077,0,0,0,70.055,462.008Z"/><path d="M104.73,453.811l4.791-4.032a2.749,2.749,0,0,0-1.6-4.847l-6.247-.4-2.368-5.8a2.715,2.715,0,0,0-2.564-1.71,2.748,2.748,0,0,0-2.545,1.739l-2.3,5.819-6.237.454A2.752,2.752,0,0,0,84.1,449.9l4.822,3.994-1.491,6.07a2.747,2.747,0,0,0,4.135,2.984l5.294-3.35,5.319,3.3a2.7,2.7,0,0,0,3.069-.115,2.739,2.739,0,0,0,1.037-2.9ZM104,461.068a.581.581,0,0,1-.7.028L97.41,457.45a1.058,1.058,0,0,0-1.129,0l-5.851,3.707a.606.606,0,0,1-.7-.019.6.6,0,0,1-.242-.668l1.651-6.722a1.044,1.044,0,0,0-.334-1.067l-5.349-4.419a.607.607,0,0,1-.2-.682.634.634,0,0,1,.557-.442l6.909-.492a1.071,1.071,0,0,0,.909-.667l2.545-6.443a.63.63,0,0,1,.6-.408.6.6,0,0,1,.585.394l2.611,6.416,7.826,1.1a.617.617,0,0,1,.561.435.607.607,0,0,1-.192.678l-5.311,4.473a1.058,1.058,0,0,0-.328,1.071l1.725,6.706A.609.609,0,0,1,104,461.068Z"/></g></svg>