<svg xmlns="http://www.w3.org/2000/svg" width="111" height="85.536" viewBox="0 0 111 85.536"><g transform="translate(-1852.385 -409.32)"><path d="M1948.577,452.633c-16.473,15.968-2.713,42.223-31.884,42.223s-40.729-22.042-52.819-41.54c-36.682-59.16,23.648-41.541,52.819-41.541S1985.222,417.111,1948.577,452.633Z" fill="#fc6b6b"/><g opacity="0.7"><path d="M1918.111,486.057h17.151a3.513,3.513,0,0,0,3.523-3.493V451.45h-20.674Z" fill="#fff"/><rect width="7.016" height="34.606" transform="translate(1909.006 451.45)" fill="#fff"/><path d="M1886.24,453.481v29.083a3.5,3.5,0,0,0,3.493,3.492h17.181V451.45H1891.82Z" fill="#fff"/><path d="M1879.417,441.43a3.488,3.488,0,0,0-2.087,4.477l2.751,7.56,23.678-8.619-3.947-10.842Z" fill="#fff"/><rect width="6.985" height="11.538" transform="translate(1901.805 433.281) rotate(-19.996)" fill="#fff"/><path d="M1931.949,422.533a3.462,3.462,0,0,0-1.192.211l-20.395,7.423,3.946,10.842,23.678-8.618-2.754-7.56A3.5,3.5,0,0,0,1931.949,422.533Z" fill="#fff"/><path d="M1891.8,422.491a5.957,5.957,0,0,0-1.773.272,5.906,5.906,0,0,0,1.733,11.54,5.98,5.98,0,0,0,2.043-.364l9.323-3.394-7.432-6.571A5.878,5.878,0,0,0,1891.8,422.491Z" fill="#fff"/><path d="M1913.351,415.03a5.914,5.914,0,0,0-5.844,5.029l-1.461,9.422,9.314-3.39a5.718,5.718,0,0,0,3.834-4.566,5.612,5.612,0,0,0-2.369-5.352A5.849,5.849,0,0,0,1913.351,415.03Z" fill="#fff"/></g><path d="M1889.733,488.312a5.74,5.74,0,0,1-5.718-5.748V454.449l-5.282,1.911-3.524-9.682a5.757,5.757,0,0,1,3.435-7.368l9.4-3.42-1.448-1.2c-.087-.073-.174-.147-.261-.223a8.158,8.158,0,0,1,3.016-13.853,8.209,8.209,0,0,1,2.46-.379,8.115,8.115,0,0,1,5.374,2.053l6.768,5.983,1.327-8.549a8.086,8.086,0,0,1,4.924-6.312,8.172,8.172,0,0,1,3.157-.638,8.085,8.085,0,0,1,4.8,1.583,7.836,7.836,0,0,1,3.264,7.5l-.314,1.927,1.713-.546,7.165-2.608a5.7,5.7,0,0,1,1.959-.347,5.773,5.773,0,0,1,5.409,3.782l3.523,9.68-42.434,15.445,5.819.011h36.75v33.369a5.755,5.755,0,0,1-5.749,5.748Zm45.529-2.391a3.376,3.376,0,0,0,3.388-3.357V451.585h-20.4v34.336Zm-19.376,0V451.585h-6.745v34.336Zm-29.51-3.357a3.361,3.361,0,0,0,3.357,3.357h17.046V451.585h-14.935l-5.468,1.991Zm-6.913-41.007a3.355,3.355,0,0,0-2.007,4.3l2.706,7.434,23.424-8.526-3.855-10.589Zm26.368,2.393,6.311-2.3-3.854-10.588-6.31,2.3Zm8.557-3.114,23.424-8.526-2.707-7.433a3.367,3.367,0,0,0-3.156-2.209,3.323,3.323,0,0,0-1.146.2l-20.268,7.377Zm-22.593-18.21a5.822,5.822,0,0,0-1.733.266,5.771,5.771,0,0,0,1.693,11.276,5.837,5.837,0,0,0,2-.356l9.109-3.316-7.262-6.42A5.738,5.738,0,0,0,1891.8,422.626Zm21.556-7.461a5.78,5.78,0,0,0-5.71,4.914l-1.426,9.2,9.1-3.312a5.583,5.583,0,0,0,3.747-4.458,5.477,5.477,0,0,0-2.315-5.224A5.711,5.711,0,0,0,1913.351,415.165Z" fill="#282d33"/></g></svg>